<svg width="14" height="14" viewBox="0 0 14 14" fill="none" xmlns="http://www.w3.org/2000/svg">
<path d="M7 14C5.13023 14 3.37239 13.2719 2.05023 11.9498C0.728137 10.6276 0 8.86977 0 7C0 5.13023 0.728137 3.37239 2.05023 2.05023C3.37239 0.728137 5.13023 0 7 0C8.86977 0 10.6276 0.728137 11.9498 2.05023C13.2719 3.37239 14 5.13023 14 7C14 8.86977 13.2719 10.6276 11.9498 11.9498C10.6276 13.2719 8.86977 14 7 14ZM7 0.820312C5.34934 0.820312 3.7975 1.46311 2.6303 2.6303C1.46311 3.7975 0.820312 5.34934 0.820312 7C0.820312 8.65066 1.46311 10.2025 2.6303 11.3697C3.7975 12.5369 5.34934 13.1797 7 13.1797C8.65066 13.1797 10.2025 12.5369 11.3697 11.3697C12.5369 10.2025 13.1797 8.65066 13.1797 7C13.1797 5.34934 12.5369 3.7975 11.3697 2.6303C10.2025 1.46311 8.65066 0.820312 7 0.820312Z" fill="#FFBE2E"/>
<path d="M6.58984 1.6416H7.41016V2.73623H6.58984V1.6416Z" fill="#FFBE2E"/>
<path d="M9.72656 3.6958L10.5005 2.9219L11.0804 3.50186L10.3065 4.27576L9.72656 3.6958Z" fill="#FFBE2E"/>
<path d="M11.2617 6.58984H12.3563V7.41016H11.2617V6.58984Z" fill="#FFBE2E"/>
<path d="M9.72266 10.305L10.3026 9.72503L11.0765 10.4989L10.4966 11.0789L9.72266 10.305Z" fill="#FFBE2E"/>
<path d="M6.58984 11.2637H7.41016V12.3584H6.58984V11.2637Z" fill="#FFBE2E"/>
<path d="M2.91797 10.4982L3.69187 9.72433L4.27183 10.3043L3.49793 11.0782L2.91797 10.4982Z" fill="#FFBE2E"/>
<path d="M1.64062 6.58984H2.73525V7.41016H1.64062V6.58984Z" fill="#FFBE2E"/>
<path d="M2.92188 3.5011L3.50184 2.92114L4.27574 3.69504L3.69578 4.275L2.92188 3.5011Z" fill="#FFBE2E"/>
<path d="M9.89548 7.41013H6.58984V4.10449H7.41016V6.58982H9.89548V7.41013Z" fill="#FFBE2E"/>
</svg>
