<svg width="11" height="15" viewBox="0 0 11 15" fill="none" xmlns="http://www.w3.org/2000/svg">
<path d="M5.49884 0C2.50338 0 0.0664062 2.43697 0.0664062 5.4324C0.0664062 9.14982 4.9279 14.6072 5.13488 14.8377C5.3293 15.0543 5.66873 15.0539 5.86279 14.8377C6.06978 14.6072 10.9313 9.14982 10.9313 5.4324C10.9312 2.43697 8.49427 0 5.49884 0ZM5.49884 13.7616C3.8627 11.8181 1.04469 7.98375 1.04469 5.43246C1.04469 2.97639 3.04279 0.978281 5.49884 0.978281C7.95489 0.978281 9.95299 2.97639 9.95299 5.43243C9.95296 7.98384 7.13539 11.8175 5.49884 13.7616Z" fill="#FFBE2E"/>
</svg>
